<!-- icon666.com - MILLIONS vector ICONS FREE --><svg viewBox="0 0 64 64" xmlns="http://www.w3.org/2000/svg"><g id="Layer_20" data-name="Layer 20"><rect fill="#9c88ff" height="57.5" rx="12.75" width="57.5" x="3.25" y="3.25"></rect><g fill="#fff"><path d="m45.35 13.61h-26.7a5 5 0 0 0 -5 5v26.7a5 5 0 0 0 5 5h26.7a5 5 0 0 0 5-5v-26.66a5 5 0 0 0 -5-5.04zm-20 35.28h-6.7a3.55 3.55 0 0 1 -3.54-3.54v-6.72h10.26zm0-11.76h-10.24v-10.26h10.26zm0-11.76h-10.24v-6.72a3.55 3.55 0 0 1 3.54-3.54h6.72zm11.78 23.52h-10.26v-10.26h10.26zm0-11.76h-10.26v-10.26h10.26zm0-11.76h-10.26v-10.26h10.26zm11.76 20a3.55 3.55 0 0 1 -3.54 3.54h-6.72v-10.28h10.26zm0-8.22h-10.26v-10.28h10.26zm0-11.76h-10.26v-10.28h6.72a3.55 3.55 0 0 1 3.54 3.54z"></path><path d="m17.93 46.08a.74.74 0 0 0 .53.22.71.71 0 0 0 .53-.22l1.25-1.24 1.24 1.24a.74.74 0 0 0 .53.22.71.71 0 0 0 .53-.22.74.74 0 0 0 0-1.06l-1.24-1.24 1.24-1.25a.74.74 0 0 0 0-1.06.75.75 0 0 0 -1.06 0l-1.24 1.25-1.24-1.25a.75.75 0 0 0 -1.06 1.06l1.25 1.25-1.26 1.22a.75.75 0 0 0 0 1.08z"></path><path d="m41.05 46.08a.73.73 0 0 0 .53.22.74.74 0 0 0 .53-.22l1.24-1.24 1.25 1.24a.71.71 0 0 0 .53.22.74.74 0 0 0 .53-.22.75.75 0 0 0 0-1.06l-1.25-1.24 1.25-1.25a.75.75 0 0 0 -1.06-1.06l-1.25 1.25-1.24-1.25a.75.75 0 0 0 -1.06 0 .74.74 0 0 0 0 1.06l1.24 1.25-1.24 1.22a.74.74 0 0 0 0 1.08z"></path><path d="m29.7 22.84a.75.75 0 0 0 .53.22.79.79 0 0 0 .53-.22l1.24-1.25 1.24 1.25a.79.79 0 0 0 .53.22.75.75 0 0 0 .53-.22.74.74 0 0 0 0-1.06l-1.24-1.25 1.24-1.24a.74.74 0 0 0 0-1.06.75.75 0 0 0 -1.06 0l-1.24 1.24-1.24-1.24a.75.75 0 0 0 -1.06 0 .74.74 0 0 0 0 1.06l1.24 1.24-1.24 1.25a.74.74 0 0 0 0 1.06z"></path><path d="m44.09 17a3.26 3.26 0 1 0 3.26 3.26 3.26 3.26 0 0 0 -3.26-3.26zm0 5a1.76 1.76 0 1 1 1.76-1.76 1.76 1.76 0 0 1 -1.76 1.76z"></path><path d="m32 47a3.26 3.26 0 1 0 -3.26-3.26 3.27 3.27 0 0 0 3.26 3.26zm0-5a1.76 1.76 0 1 1 -1.76 1.76 1.76 1.76 0 0 1 1.76-1.76z"></path><path d="m32 35.27a3.26 3.26 0 1 0 -3.26-3.27 3.26 3.26 0 0 0 3.26 3.27zm0-5a1.76 1.76 0 1 1 -1.76 1.73 1.76 1.76 0 0 1 1.76-1.74z"></path></g></g></svg>